<?xml version="1.0" encoding="utf-8"?>
<!-- Generator: Adobe Illustrator 27.0.0, SVG Export Plug-In . SVG Version: 6.00 Build 0)  -->
<svg version="1.1" id="Capa_1" xmlns="http://www.w3.org/2000/svg" xmlns:xlink="http://www.w3.org/1999/xlink" x="0px" y="0px"
	 viewBox="0 0 16 16" style="enable-background:new 0 0 16 16;" xml:space="preserve">
<style type="text/css">
	.st0{fill:#FFFFFF;}
</style>
<path class="st0" d="M8,12.9c-1,0-2-0.2-3-0.7c-0.8-0.4-1.6-0.9-2.4-1.6C1.2,9.5,0.4,8.4,0.3,8.3c-0.1-0.2-0.1-0.4,0-0.6
	c0,0,0.9-1.1,2.2-2.3C3.3,4.8,4.1,4.2,5,3.9C6,3.4,7,3.1,8,3.1s2,0.2,3,0.7c0.8,0.4,1.6,0.9,2.4,1.6c1.3,1.1,2.2,2.2,2.2,2.3
	c0.1,0.2,0.1,0.4,0,0.6c0,0-0.9,1.1-2.2,2.3c-0.8,0.7-1.6,1.2-2.4,1.6C10,12.6,9,12.9,8,12.9z M1.4,8c0.8,1,3.5,3.8,6.6,3.8
	c3.1,0,5.8-2.9,6.6-3.8C13.8,7,11.1,4.2,8,4.2C4.9,4.2,2.2,7,1.4,8z"/>
<path class="st0" d="M8,10.3c-1.3,0-2.3-1-2.3-2.3s1-2.3,2.3-2.3s2.3,1,2.3,2.3S9.3,10.3,8,10.3z M8,6.7C7.3,6.7,6.7,7.3,6.7,8
	S7.3,9.3,8,9.3S9.3,8.7,9.3,8S8.7,6.7,8,6.7z"/>
</svg>
