<?xml version="1.0" encoding="utf-8"?>
<!-- Generator: Adobe Illustrator 27.0.0, SVG Export Plug-In . SVG Version: 6.00 Build 0)  -->
<svg version="1.1" id="Capa_1" xmlns="http://www.w3.org/2000/svg" xmlns:xlink="http://www.w3.org/1999/xlink" x="0px" y="0px"
	 viewBox="0 0 24 24" style="enable-background:new 0 0 24 24;" xml:space="preserve">
<style type="text/css">
	.st0{fill:#FFFFFF;}
	.st1{fill:#1E6DFF;}
</style>
<circle class="st0" cx="12" cy="12.1" r="12"/>
<path class="st1" d="M12,0.1c-6.6,0-12,5.4-12,12c0,5.2,3.3,9.7,8.2,11.4c0.6,0.1,0.8-0.3,0.8-0.6c0-0.3,0-1.2,0-2.2
	c-3,0.6-3.8-0.7-4-1.4c-0.3-0.7-0.7-1.2-1.2-1.7c-0.4-0.2-1-0.8,0-0.8c0.8,0.1,1.5,0.5,1.8,1.2c0.7,1.2,2.2,1.7,3.5,1c0,0,0,0,0,0
	c0.1-0.6,0.3-1.2,0.8-1.6c-2.7-0.3-5.5-1.3-5.5-5.9c0-1.2,0.4-2.3,1.2-3.2c-0.4-1-0.3-2.2,0.1-3.2c0,0,1-0.3,3.3,1.2
	c2-0.5,4-0.5,6,0c2.3-1.6,3.3-1.2,3.3-1.2c0.4,1,0.5,2.1,0.1,3.2c0.8,0.9,1.2,2,1.2,3.2c0,4.6-2.8,5.6-5.5,5.9
	c0.6,0.6,0.9,1.4,0.8,2.2c0,1.6,0,2.9,0,3.3c0,0.3,0.2,0.7,0.8,0.6c6.3-2.1,9.6-8.9,7.5-15.2C21.7,3.4,17.2,0.1,12,0.1z"/>
</svg>
