<?xml version="1.0" encoding="UTF-8"?><svg id="Capa_1" xmlns="http://www.w3.org/2000/svg" viewBox="0 0 299.97 300"><defs><style>.cls-1{fill:#fff;}</style></defs><path class="cls-1" d="M289.5,121.2c-8.53-10.24-21.17-16.18-34.5-16.2h-68.4l8.4-21.45c11.93-32.07-4.39-67.73-36.46-79.66C151.54,1.28,144.12-.03,136.65,0c-5.89,.01-11.23,3.47-13.65,8.85l-42.75,96.15H45C20.15,105,0,125.15,0,150v105c0,24.85,20.15,45,45,45H235.95c21.72,0,40.34-15.53,44.25-36.9l19.05-105c2.39-13.14-1.19-26.66-9.75-36.9ZM75,270h-30c-8.28,0-15-6.72-15-15v-105c0-8.28,6.72-15,15-15h30v135Zm195-117.3l-19.05,105c-1.32,7.22-7.66,12.42-15,12.3H105V123.15L145.8,31.35c16.78,4.89,26.42,22.46,21.53,39.24-.24,.83-.52,1.65-.83,2.46l-7.95,21.45c-5.8,15.52,2.08,32.8,17.6,38.6,3.34,1.25,6.88,1.89,10.45,1.9h68.4c4.46,0,8.69,1.97,11.55,5.4,2.93,3.38,4.19,7.89,3.45,12.3Z"/></svg>