<?xml version="1.0" encoding="utf-8"?>
<!-- Generator: Adobe Illustrator 27.0.0, SVG Export Plug-In . SVG Version: 6.00 Build 0)  -->
<svg version="1.1" id="Capa_1" xmlns="http://www.w3.org/2000/svg" xmlns:xlink="http://www.w3.org/1999/xlink" x="0px" y="0px"
	 viewBox="0 0 2500 2500" style="enable-background:new 0 0 2500 2500;" xml:space="preserve">
<style type="text/css">
	.st0{fill:#1E6DFF;}
	.st1{fill:#FFFFFF;}
</style>
<ellipse transform="matrix(0.7071 -0.7071 0.7071 0.7071 -517.7671 1249.9991)" class="st0" cx="1250" cy="1250" rx="1250" ry="1250"/>
<rect x="642" y="967.6" class="st1" width="274.4" height="886.7"/>
<path class="st1" d="M778,851.5c-89.6,0-162.3-73.3-162.3-163.6c0-90.4,72.7-163.6,162.3-163.6s162.3,73.3,162.3,163.6
	C940.3,778.3,867.6,851.5,778,851.5z"/>
<path class="st1" d="M1945,1854.3h-273.1v-465.4c0-127.7-48.5-198.9-149.4-198.9c-109.9,0-167.2,74.2-167.2,198.9v465.4H1092V967.6
	h263.2v119.4c0,0,79.2-146.5,267.2-146.5c188,0,322.6,114.8,322.6,352.3L1945,1854.3L1945,1854.3z"/>
</svg>
