<svg xmlns="http://www.w3.org/2000/svg" width="666.667" height="666.667" fill-rule="evenodd" clip-rule="evenodd" image-rendering="optimizeQuality" shape-rendering="geometricPrecision" text-rendering="geometricPrecision" viewBox="0 0 17639 17639"><path fill="#e4469c" d="M1094 1141h15452v15357H1094z"/><path fill="#252653" d="M2389 2428h12862v12783H2389z"/><rect width="1393" height="7081" x="5497" y="5245" fill="#e4469c" rx="58" ry="58"/><path fill="#e4469c" d="M10641 7943v3309c-1188 88-1655-752-1672-1609-7-367 65-739 205-1038 280-597 880-703 1467-662zm1463 3686V5216l-1509-29-12 1596c0 5-48-1-58 0-183 16-966-122-1741 406-639 435-1228 1073-1248 2496-24 1716 1081 2684 2666 2763 456 22 942-38 1368-210 85-34 227-94 349-151 173-81 260-139 208-317l-23-141z"/></svg>