<svg xmlns="http://www.w3.org/2000/svg" width="666.667" height="666.667" fill-rule="evenodd" clip-rule="evenodd" image-rendering="optimizeQuality" shape-rendering="geometricPrecision" text-rendering="geometricPrecision" viewBox="0 0 17639 17639"><path fill="#ff7c00" d="M1082 1129h15476v15381H1082z"/><path fill="#261300" d="M2379 2418h12882v12803H2379z"/><rect width="1336" height="5131" x="11402" y="7290" fill="#ff7c00" rx="57" ry="57"/><ellipse cx="12070" cy="5933" fill="#ff7c00" rx="710" ry="679"/><path fill="#ff7c00" d="m8761 10627 501 1659c26 98 77 122 146 121h1283c99 1 106-29 91-95L8663 5244c-4-13-14-22-34-22l-1777-5c-70 0-71 36-65 104 22 246 10 384-42 577l-1876 6418c-20 61-15 91 65 92l1211-1c128-4 135-39 157-103l420-1677h2039zm-259-1290H7031l713-2884 758 2884z"/></svg>