<?xml version="1.0" encoding="utf-8"?>
<!-- Generator: Adobe Illustrator 27.0.1, SVG Export Plug-In . SVG Version: 6.00 Build 0)  -->
<svg version="1.1" id="Capa_1" xmlns="http://www.w3.org/2000/svg" xmlns:xlink="http://www.w3.org/1999/xlink" x="0px" y="0px"
	 viewBox="0 0 64 64" style="enable-background:new 0 0 64 64;" xml:space="preserve">
<style type="text/css">
	.st0{fill-rule:evenodd;clip-rule:evenodd;}
</style>
<path class="st0" d="M33.5,5.4C32.7,5.4,32,6.1,32,7c0,0.7,0.4,1.3,1,1.5v2l-3,2.7l0,9.4h-3v-6.2l-5-4.3V9.6c0.6-0.2,1-0.8,1-1.5
	c0-0.9-0.7-1.6-1.5-1.6S20,7.2,20,8.1c0,0.7,0.4,1.3,1,1.5v3.1l5,4.3v5.7h-2.5v-4.7L19.9,15c0-0.2,0.1-0.3,0.1-0.5
	c0-0.9-0.7-1.6-1.5-1.6S17,13.6,17,14.5c0,0.9,0.7,1.6,1.5,1.6c0.3,0,0.6-0.1,0.8-0.3l3.2,2.6v4.1h-8c-1.4,0-2.5,1.2-2.5,2.7v24.2
	H8.5c-0.3,0-0.5,0.2-0.5,0.5v2.2c0,2.1,1.6,3.8,3.5,3.8h41c1.9,0,3.5-1.7,3.5-3.8v-2.2c0-0.3-0.2-0.5-0.5-0.5H52V25.3
	c0-1.5-1.1-2.7-2.5-2.7H41v-4.1l3.5-2.8c0.3,0.3,0.6,0.5,1,0.5c0.8,0,1.5-0.7,1.5-1.6c0-0.9-0.7-1.6-1.5-1.6S44,13.6,44,14.5
	c0,0.1,0,0.1,0,0.1l-4,3.2v4.7h-2v-5.7l5-4.3V9.6c0.6-0.2,1-0.8,1-1.5c0-0.9-0.7-1.6-1.5-1.6S41,7.2,41,8.1c0,0.7,0.4,1.3,1,1.5v2.5
	l-5,4.3v6.2h-3l0-7.3l3.5-2.8c0.3,0.2,0.6,0.4,1,0.4c0.8,0,1.5-0.7,1.5-1.6s-0.7-1.6-1.5-1.6S37,10.4,37,11.3c0,0.1,0,0.2,0,0.3
	l-4,3.2l0,7.8h-2l0-8.9l3-2.7V8.5c0.6-0.2,1-0.8,1-1.5C35,6.1,34.3,5.4,33.5,5.4z M33.5,6.4C33.8,6.4,34,6.7,34,7s-0.2,0.5-0.5,0.5
	C33.2,7.5,33,7.3,33,7c0,0,0,0,0,0C33,6.7,33.2,6.4,33.5,6.4z M21.5,7.5c0.3,0,0.5,0.2,0.5,0.5c0,0.3-0.2,0.5-0.5,0.5
	c-0.3,0-0.5-0.2-0.5-0.5c0,0,0,0,0,0C21,7.8,21.2,7.5,21.5,7.5z M42.5,7.5c0.3,0,0.5,0.2,0.5,0.5c0,0.3-0.2,0.5-0.5,0.5
	c-0.3,0-0.5-0.2-0.5-0.5c0,0,0,0,0,0C42,7.8,42.2,7.5,42.5,7.5z M38.5,10.7c0.3,0,0.5,0.2,0.5,0.5c0,0.3-0.2,0.5-0.5,0.5
	c-0.3,0-0.5-0.2-0.5-0.5c0,0,0,0,0,0C38,11,38.2,10.7,38.5,10.7z M18.5,14c0.3,0,0.5,0.2,0.5,0.5c0,0.3-0.2,0.5-0.5,0.5
	c-0.3,0-0.5-0.2-0.5-0.5c0,0,0,0,0,0C18,14.2,18.2,14,18.5,14z M45.5,14c0.3,0,0.5,0.2,0.5,0.5c0,0.3-0.2,0.5-0.5,0.5
	c-0.3,0-0.5-0.2-0.5-0.5c0,0,0,0,0,0C45,14.2,45.2,14,45.5,14z M14.5,23.7h35c0.8,0,1.5,0.7,1.5,1.6v24.2H13V25.3
	C13,24.4,13.7,23.7,14.5,23.7z M15.5,25.8c-0.3,0-0.5,0.2-0.5,0.5v20.5c0,0.3,0.2,0.5,0.5,0.5h33c0.3,0,0.5-0.2,0.5-0.5V26.4
	c0-0.3-0.2-0.5-0.5-0.5H15.5z M16,26.9h6.5V30l-3.2,2.6c-0.2-0.2-0.5-0.3-0.8-0.3c-0.8,0-1.5,0.7-1.5,1.6c0,0.9,0.7,1.6,1.5,1.6
	s1.5-0.7,1.5-1.6c0-0.2,0-0.3-0.1-0.5l3.6-2.9v-3.6H26v4.6l-5,4.3v3.1c-0.6,0.2-1,0.8-1,1.5c0,0.9,0.7,1.6,1.5,1.6s1.5-0.7,1.5-1.6
	c0-0.7-0.4-1.3-1-1.5v-2.5l5-4.3v-5.1h3l0,7.8l-2.7,2.2c-0.2-0.2-0.5-0.3-0.8-0.3c-0.8,0-1.5,0.7-1.5,1.6s0.7,1.6,1.5,1.6
	s1.5-0.7,1.5-1.6c0-0.2,0-0.3-0.1-0.5l3.1-2.5l0-8.4h2l0,9.4l3,2.7v2c-0.6,0.2-1,0.8-1,1.5c0,0.9,0.7,1.6,1.5,1.6s1.5-0.7,1.5-1.6
	c0-0.7-0.4-1.3-1-1.5v-2.5l-3-2.7l0-8.9h3v5.6l5,3.8v2.6c-0.6,0.2-1,0.8-1,1.5c0,0.9,0.7,1.6,1.5,1.6s1.5-0.7,1.5-1.6
	c0-0.7-0.4-1.3-1-1.5v-3.2l-5-3.8v-5h2v3.5l4,3.1c0,0.1,0,0.2,0,0.4c0,0.9,0.7,1.6,1.5,1.6s1.5-0.7,1.5-1.6c0-0.9-0.7-1.6-1.5-1.6
	c-0.3,0-0.6,0.1-0.9,0.3L41,29.9v-3h7v19.4H16V26.9z M18.5,33.4c0.3,0,0.5,0.2,0.5,0.5c0,0.3-0.2,0.5-0.5,0.5
	c-0.3,0-0.5-0.2-0.5-0.5c0,0,0,0,0,0C18,33.6,18.2,33.4,18.5,33.4z M45.5,33.4c0.3,0,0.5,0.2,0.5,0.5c0,0.3-0.2,0.5-0.5,0.5
	c-0.3,0-0.5-0.2-0.5-0.5c0,0,0,0,0,0C45,33.6,45.2,33.4,45.5,33.4z M26.5,37.7c0.3,0,0.5,0.2,0.5,0.5s-0.2,0.5-0.5,0.5
	c-0.3,0-0.5-0.2-0.5-0.5c0,0,0,0,0,0C26,37.9,26.2,37.7,26.5,37.7z M21.5,39.8c0.3,0,0.5,0.2,0.5,0.5s-0.2,0.5-0.5,0.5
	c-0.3,0-0.5-0.2-0.5-0.5c0,0,0,0,0,0C21,40.1,21.2,39.8,21.5,39.8z M42.5,39.8c0.3,0,0.5,0.2,0.5,0.5s-0.2,0.5-0.5,0.5
	c-0.3,0-0.5-0.2-0.5-0.5c0,0,0,0,0,0C42,40.1,42.2,39.8,42.5,39.8z M36.5,42c0.3,0,0.5,0.2,0.5,0.5s-0.2,0.5-0.5,0.5
	c-0.3,0-0.5-0.2-0.5-0.5c0,0,0,0,0,0C36,42.2,36.2,42,36.5,42z M9,50.6h17v0c0.2,1.3,1.3,2.1,2.5,2.2h8c1.2,0,2.2-0.9,2.5-2.2h16
	v1.6c0,1.5-1.1,2.7-2.5,2.7h-41c-1.4,0-2.5-1.2-2.5-2.7c0,0,0,0,0,0V50.6z M27.2,50.6h10.6c-0.2,0.6-0.7,1.1-1.3,1.1h-8
	C27.9,51.7,27.4,51.2,27.2,50.6z"/>
</svg>
