<?xml version="1.0" encoding="utf-8"?>
<!-- Generator: Adobe Illustrator 27.0.1, SVG Export Plug-In . SVG Version: 6.00 Build 0)  -->
<svg version="1.1" id="Capa_1" xmlns="http://www.w3.org/2000/svg" xmlns:xlink="http://www.w3.org/1999/xlink" x="0px" y="0px"
	 viewBox="0 0 25 15.3" style="enable-background:new 0 0 25 15.3;" xml:space="preserve">
<style type="text/css">
	.st0{fill:#525967;}
	.st1{fill:#454B57;}
	.st2{fill:#0ACF83;}
	.st3{fill:#A259FF;}
	.st4{fill:#F24E1E;}
	.st5{fill:#FF7262;}
	.st6{fill:#1ABCFE;}
	.st7{fill:none;}
</style>
<g>
	<g>
		<g>
			<g>
				<path class="st0" d="M7.6,0.9h9.7c1.1,0,2,0.9,2,2v9.7c0,1.1-0.9,2-2,2H7.6c-1.1,0-2-0.9-2-2V2.9C5.6,1.7,6.5,0.9,7.6,0.9z"/>
				<path class="st1" d="M17.4,1.5c0.8,0,1.4,0.6,1.4,1.4v9.7c0,0.8-0.6,1.4-1.4,1.4H7.6c-0.8,0-1.4-0.6-1.4-1.4V2.9
					c0-0.8,0.6-1.4,1.4-1.4l0,0H17.4 M17.4,0.9H7.6c-1.1,0-2,0.9-2,2v9.7c0,1.1,0.9,2,2,2h9.7c1.1,0,2-0.9,2-2V2.9
					C19.4,1.7,18.5,0.9,17.4,0.9z"/>
				<path class="st2" d="M10.8,12.8c0.9,0,1.7-0.8,1.7-1.7V9.4h-1.7c-0.9,0-1.7,0.8-1.7,1.7C9.1,12.1,9.8,12.8,10.8,12.8
					C10.8,12.8,10.8,12.8,10.8,12.8z"/>
				<path class="st3" d="M9.1,7.7C9.1,6.8,9.8,6,10.8,6h1.7v3.4h-1.7C9.8,9.4,9.1,8.7,9.1,7.7z"/>
				<path class="st4" d="M9.1,4.3c0-0.9,0.8-1.7,1.7-1.7h1.7V6h-1.7C9.8,6,9.1,5.2,9.1,4.3z"/>
				<path class="st5" d="M12.5,2.6h1.7c0.9,0,1.7,0.8,1.7,1.7S15.2,6,14.2,6c0,0,0,0,0,0h-1.7V2.6z"/>
				<path class="st6" d="M15.9,7.7c0,0.9-0.8,1.7-1.7,1.7s-1.7-0.8-1.7-1.7S13.3,6,14.2,6l0,0C15.2,6,15.9,6.8,15.9,7.7z"/>
			</g>
			<path class="st7" d="M0-4.8h25v25H0V-4.8z"/>
		</g>
	</g>
</g>
</svg>
