<?xml version="1.0" encoding="utf-8"?>
<!-- Generator: Adobe Illustrator 27.0.1, SVG Export Plug-In . SVG Version: 6.00 Build 0)  -->
<svg version="1.1" id="Capa_1" xmlns="http://www.w3.org/2000/svg" xmlns:xlink="http://www.w3.org/1999/xlink" x="0px" y="0px"
	 viewBox="0 0 512 512" style="enable-background:new 0 0 512 512;" xml:space="preserve">
<path d="M78.3,454.5h42.5c3.4,0.1,6.2-2.5,6.3-5.9c0,0,0-0.1,0-0.1v-16h245.8v16c0,3.4,2.8,6.1,6.2,6.1c0,0,0.1,0,0.1,0h42.5
	c3.4,0.1,6.2-2.5,6.3-5.9c0-0.1,0-0.1,0-0.2v-45.1c0-3.5-2.8-6.3-6.3-6.3h-15V140.2h15c3.5,0,6.3-2.8,6.3-6.3V88.8
	c0-3.4-2.8-6.1-6.1-6.1c-0.1,0-0.1,0-0.2,0h-42.5c-3.4-0.1-6.2,2.5-6.3,5.9c0,0,0,0.1,0,0.1v16H127.1v-16c0-3.4-2.8-6.1-6.2-6.1
	c0,0-0.1,0-0.1,0H78.3c-3.4-0.1-6.2,2.5-6.3,5.9c0,0.1,0,0.1,0,0.2v45.1c0,3.5,2.8,6.3,6.3,6.3h15V397h-15c-3.5,0-6.3,2.8-6.3,6.3
	v45.1c0,3.4,2.8,6.1,6.1,6.1C78.1,454.5,78.2,454.5,78.3,454.5z M415.4,441.9h-29.9v-32.3h29.9V441.9z M385.5,95.3h29.9v32.3h-29.9
	V95.3z M84.6,95.3h29.9v32.3H84.6V95.3z M105.8,140.2h14.9c3.5,0,6.3-2.8,6.3-6.3v-16.5h245.8v16.5c0,3.5,2.9,6.3,6.3,6.3h14.9V397
	h-14.9c-3.5,0-6.3,2.8-6.3,6.3v16.5H127.1v-16.5c0-3.5-2.9-6.3-6.3-6.3h-14.9V140.2z M84.6,409.6h29.9v32.3H84.6V409.6z"/>
<path d="M190.9,350.5h-7c-3.5,0-6.3,2.8-6.3,6.3c0,3.5,2.8,6.3,6.3,6.3h10.5l10.9,39.4c0.7,2.7,3.2,4.7,6.1,4.7h79.7
	c2.9,0,5.4-2,6.1-4.8l10.1-39.3h8.8c3.5,0,6.3-2.8,6.3-6.3c0-3.5-2.8-6.3-6.3-6.3h-5.6l19-74c0.4-1.5,0.2-3.1-0.5-4.5l-73.4-138.7
	c-1.6-3.1-5.4-4.2-8.5-2.6c-1.1,0.6-2,1.5-2.6,2.6L171,272.1c-0.8,1.4-0.9,3-0.5,4.5L190.9,350.5z M286.2,394.6h-70l-8.7-31.5h86.7
	L286.2,394.6z M250,246.6c6.1,0,11.1,5,11.1,11.1c0,6.1-5,11.1-11.1,11.1c-6.1,0-11.1-5-11.1-11.1v0
	C238.9,251.6,243.8,246.6,250,246.6z M243.7,161.6v73.2c-12.6,3.5-20.1,16.5-16.6,29.2c3.5,12.6,16.5,20.1,29.2,16.6
	s20.1-16.5,16.6-29.2c-2.2-8.1-8.5-14.4-16.6-16.6v-73.2l60.4,114.1l-19.2,74.8H204l-20.7-74.9L243.7,161.6z"/>
</svg>
