<?xml version="1.0" encoding="utf-8"?>
<!-- Generator: Adobe Illustrator 27.0.1, SVG Export Plug-In . SVG Version: 6.00 Build 0)  -->
<svg version="1.1" id="Capa_1" xmlns="http://www.w3.org/2000/svg" xmlns:xlink="http://www.w3.org/1999/xlink" x="0px" y="0px"
	 viewBox="0 0 27.3 38.4" style="enable-background:new 0 0 27.3 38.4;" xml:space="preserve">
<style type="text/css">
	.st0{fill:none;stroke:#000000;stroke-miterlimit:10;}
	.st1{fill:none;}
</style>
<path class="st0" d="M25,37.1H2.2c-0.4,0-0.8-0.3-0.8-0.7V2.1c0-0.4,0.4-0.7,0.8-0.7H25c0.4,0,0.8,0.3,0.8,0.7v34.2
	C25.8,36.8,25.5,37.1,25,37.1z"/>
<path class="st0" d="M13.6,17.8c-1.8,0-3.3-1.3-3.3-3c0-1.6,1.5-3,3.3-3s3.3,1.3,3.3,3C16.8,16.4,15.4,17.8,13.6,17.8z M13.6,24.5
	c-1.6,0-3.1-0.4-4.5-1.1c-0.3-0.1-0.4-0.4-0.4-0.6v-2.7c0-0.4,0.4-0.7,0.8-0.7h8.1c0.4,0,0.8,0.3,0.8,0.7v2.6c0,0.3-0.2,0.5-0.4,0.6
	C16.7,24.1,15.2,24.5,13.6,24.5z M15.2,30.4h-3.3c-0.4,0-0.8-0.3-0.8-0.7v-3c0-0.4,0.4-0.7,0.8-0.7h3.3c0.4,0,0.8,0.3,0.8,0.7v3
	C16.1,30.1,15.6,30.4,15.2,30.4z M21.8,30.4h-3.3c-0.4,0-0.8-0.3-0.8-0.7v-3c0-0.4,0.4-0.7,0.8-0.7h3.3c0.4,0,0.8,0.3,0.8,0.7v3
	C22.6,30.1,22.1,30.4,21.8,30.4z M8.7,30.4H5.5c-0.4,0-0.8-0.3-0.8-0.7v-3c0-0.4,0.4-0.7,0.8-0.7h3.3c0.4,0,0.8,0.3,0.8,0.7v3
	C9.6,30.1,9.2,30.4,8.7,30.4z"/>
<path class="st0" d="M13.6,24.5c-1.6,0-3.1-0.4-4.5-1.1c-2.8-1.5-4.5-4.2-4.5-7.1c0-4.5,4-8.2,9-8.2s9,3.7,9,8.2
	c0,2.9-1.7,5.6-4.5,7.1C16.7,24.1,15.2,24.5,13.6,24.5z M20.1,5.9h-13c-0.4,0-0.8-0.3-0.8-0.7v-3c0-0.4,0.4-0.7,0.8-0.7h13
	c0.4,0,0.8,0.3,0.8,0.7v3C21,5.5,20.6,5.9,20.1,5.9z M19.2,34.2H7.8c-0.4,0-0.8-0.3-0.8-0.7s0.4-0.7,0.8-0.7h11.4
	c0.4,0,0.8,0.3,0.8,0.7C20.1,33.8,19.7,34.2,19.2,34.2z"/>
<rect x="-5.9" y="1.4" class="st1" width="39.1" height="35.7"/>
</svg>
